<?xml version="1.0" standalone="no"?><!DOCTYPE svg PUBLIC "-//W3C//DTD SVG 1.1//EN" "http://www.w3.org/Graphics/SVG/1.1/DTD/svg11.dtd"><svg class="icon" width="48px" height="48.00px" viewBox="0 0 1024 1024" version="1.1" xmlns="http://www.w3.org/2000/svg"><path fill="#515151" d="M739.63651 564.518121c-28.916587-0.156566-52.018747-23.600511-51.51528-52.277644 0.49221-28.067242 23.304775-49.842175 52.004421-49.638537 28.795836 0.203638 50.885947 21.944801 51.02614 50.219775 0.146333 29.557176-22.073738 51.856042-51.515281 51.696406zM566.496172 512.653893c0.36532 29.754674-21.399379 51.865251-51.051723 51.861158-28.696576-0.00307-50.806129-21.577434-51.212382-49.970088-0.420579-29.410843 21.653159-51.701522 51.244104-51.747572 29.006637-0.045025 50.66696 21.12104 51.020001 49.856502zM341.768921 513.598404c-0.008186 28.993335-21.173229 50.582025-49.9179 50.91767-29.828352 0.348947-51.736315-21.277606-51.704592-51.03842 0.032746-29.953196 21.608134-51.0507 51.830459-50.682309 29.060873 0.354064 49.800219 21.51399 49.792033 50.803059z" /></svg>